<?xml version="1.0" standalone="no"?>
<!DOCTYPE svg PUBLIC "-//W3C//DTD SVG 20010904//EN"
 "http://www.w3.org/TR/2001/REC-SVG-20010904/DTD/svg10.dtd">
<svg version="1.0" xmlns="http://www.w3.org/2000/svg"
 width="700.000000pt" height="700.000000pt" viewBox="0 0 700.000000 700.000000"
 preserveAspectRatio="xMidYMid meet">
<metadata>
Created by potrace 1.11, written by Peter Selinger 2001-2013
</metadata>
<g transform="translate(0.000000,700.000000) scale(0.100000,-0.100000)"
fill="#000000" stroke="none">
<path d="M3360 5929 c-137 -12 -247 -36 -398 -85 -514 -167 -926 -576 -1097
-1086 -144 -433 -118 -883 75 -1295 47 -100 132 -239 192 -316 17 -21 29 -40
27 -41 -2 -2 -71 -43 -154 -91 -82 -47 -155 -92 -161 -100 -14 -18 -228 -545
-223 -549 2 -1 136 -21 298 -43 l294 -39 111 64 c61 35 193 111 292 168 l182
104 54 -24 c30 -14 94 -37 142 -51 159 -50 301 -23 404 75 93 89 136 221 113
340 -7 34 -11 63 -9 65 16 15 723 415 729 413 20 -7 95 -121 140 -213 67 -137
90 -231 96 -390 8 -203 -32 -362 -136 -539 -53 -90 -164 -214 -254 -282 -81
-61 -242 -139 -342 -165 -127 -33 -304 -37 -445 -9 -155 31 -243 26 -328 -20
-75 -40 -135 -102 -170 -178 -23 -49 -27 -70 -27 -152 0 -86 3 -101 31 -160
61 -127 150 -188 328 -225 817 -174 1639 252 1965 1016 164 386 182 813 50
1219 -38 117 -131 310 -198 410 -27 41 -48 76 -47 77 1 1 96 56 211 121 240
136 275 168 275 248 0 39 -16 72 -126 262 -69 119 -133 223 -142 230 -30 23
-88 33 -132 23 -22 -5 -137 -64 -255 -131 l-215 -123 23 -41 c14 -22 82 -140
152 -261 70 -121 130 -224 133 -230 2 -5 -23 20 -56 56 -187 203 -453 373
-727 465 -100 33 -117 36 -195 32 -102 -5 -176 -36 -244 -103 -113 -110 -146
-293 -76 -431 12 -23 16 -42 11 -47 -5 -5 -164 -98 -353 -207 l-343 -198 -29
26 c-93 87 -208 290 -247 437 -30 113 -37 302 -15 418 37 197 122 361 260 505
237 246 573 350 909 281 146 -30 241 -24 325 20 270 144 269 530 -2 668 -66
33 -242 70 -400 83 -141 11 -139 11 -276 -1z"/>
</g>
</svg>
