<?xml version="1.0" standalone="no"?>
<!DOCTYPE svg PUBLIC "-//W3C//DTD SVG 20010904//EN"
 "http://www.w3.org/TR/2001/REC-SVG-20010904/DTD/svg10.dtd">
<svg version="1.0" xmlns="http://www.w3.org/2000/svg"
 width="700.000000pt" height="700.000000pt" viewBox="0 0 700.000000 700.000000"
 preserveAspectRatio="xMidYMid meet">
<metadata>
Created by potrace 1.11, written by Peter Selinger 2001-2013
</metadata>
<g transform="translate(0.000000,700.000000) scale(0.100000,-0.100000)"
fill="#000000" stroke="none">
<path d="M3015 6093 c-599 -76 -1099 -428 -1363 -958 -293 -587 -224 -1298
175 -1818 114 -148 287 -307 439 -403 l75 -48 -175 -175 -176 -176 -37 -292
c-20 -161 -35 -294 -32 -297 2 -2 136 13 297 33 l293 37 317 316 317 316 70 6
c83 8 174 47 234 101 57 52 108 160 118 250 l8 71 258 253 258 254 42 -13
c213 -63 443 -278 552 -513 64 -139 80 -220 79 -412 0 -156 -2 -177 -28 -259
-106 -347 -367 -598 -713 -687 -43 -10 -136 -23 -207 -29 -113 -8 -137 -12
-191 -39 -76 -37 -147 -111 -183 -189 -22 -48 -27 -71 -27 -147 0 -81 3 -97
32 -157 39 -82 100 -145 179 -184 58 -28 62 -29 219 -28 223 0 378 32 597 120
555 223 957 721 1064 1319 22 123 25 421 6 540 -80 495 -349 915 -765 1194
-147 99 -372 197 -557 242 -36 9 -62 28 -130 95 l-86 84 -63 -64 c-62 -63 -64
-64 -130 -70 -80 -8 -171 -48 -230 -101 -57 -52 -108 -157 -116 -242 l-7 -68
-256 -257 c-144 -145 -265 -258 -275 -258 -30 0 -146 57 -231 114 -87 58 -190
157 -257 246 -55 74 -123 218 -150 315 -30 113 -37 322 -15 434 65 319 265
573 560 712 108 50 225 78 382 89 111 8 135 13 189 39 169 83 253 279 195 451
-40 119 -133 212 -246 246 -44 13 -229 17 -309 7z"/>
<path d="M4570 5064 c-20 -8 -112 -92 -216 -195 l-181 -181 261 -258 261 -259
173 172 c95 95 182 189 193 209 12 23 19 57 19 89 l0 53 -177 179 c-98 98
-190 185 -205 193 -34 18 -83 17 -128 -2z"/>
</g>
</svg>
