<?xml version="1.0" encoding="UTF-8" standalone="no"?>
<svg xmlns="http://www.w3.org/2000/svg" xmlns:xlink="http://www.w3.org/1999/xlink" style="isolation:isolate" viewBox="0 0 256 256" width="256pt" height="256pt">
  <defs>
    <clipPath id="_clipPath_Xsrh3WoihO6GaAnCQ7VnxQ0xYxK1jHDf">
      <rect width="256" height="256"/>
    </clipPath>
  </defs>
  <g clip-path="url(#_clipPath_Xsrh3WoihO6GaAnCQ7VnxQ0xYxK1jHDf)">
    <path d="M 49.92 0 L 206.08 0 C 233.632 0 256 22.368 256 49.92 L 256 206.08 C 256 233.632 233.632 256 206.08 256 L 49.92 256 C 22.368 256 0 233.632 0 206.08 L 0 49.92 C 0 22.368 22.368 0 49.92 0 Z" style="stroke:none;fill:#FFFFFF;stroke-miterlimit:10;"/>
    <path d=" M 138.528 223.243 C 173.697 223.243 202.25 194.792 202.25 159.748 L 202.25 159.748 C 202.25 125.217 174.528 97.088 140.071 96.265 C 139.831 96.258 139.59 96.252 139.348 96.252 C 139.257 96.252 139.165 96.253 139.075 96.257 C 138.893 96.253 138.711 96.252 138.528 96.252 L 138.528 96.252 L 138.528 96.276 C 131.264 96.699 125.495 102.712 125.495 110.056 C 125.495 117.4 131.264 123.412 138.528 123.835 L 138.528 123.859 L 138.528 123.859 C 158.406 123.859 174.545 139.94 174.545 159.748 L 174.545 159.748 C 174.545 179.555 158.406 195.637 138.528 195.637 L 138.528 195.637 C 130.883 195.637 124.675 201.822 124.675 209.44 C 124.675 217.058 130.883 223.243 138.528 223.243 L 138.528 223.243 Z " fill="rgb(0,151,167)"/>
    <path d=" M 183.7 91.537 C 186.264 88.982 186.745 85.202 184.743 83.339 L 172.821 71.458 C 170.95 69.463 167.157 69.943 164.593 72.498 L 152.501 84.497 L 171.608 103.536 M 72.795 163.97 L 70.018 185.775 L 91.902 183.009 L 164.637 110.481 L 145.53 91.442 L 72.795 163.97 Z " fill="rgb(97,97,97)"/>
    <path d=" M 117.472 32.757 C 82.303 32.757 53.75 61.208 53.75 96.252 L 53.75 96.252 C 53.75 130.783 81.472 158.912 115.929 159.735 C 116.169 159.742 116.41 159.748 116.652 159.748 C 116.743 159.748 116.835 159.747 116.925 159.743 C 117.107 159.747 117.289 159.748 117.472 159.748 L 117.472 159.748 L 117.472 159.724 C 124.736 159.301 130.505 153.288 130.505 145.944 C 130.505 138.6 124.736 132.588 117.472 132.165 L 117.472 132.141 L 117.472 132.141 C 97.594 132.141 81.455 116.06 81.455 96.252 L 81.455 96.252 C 81.455 76.445 97.594 60.363 117.472 60.363 L 117.472 60.363 C 125.117 60.363 131.325 54.178 131.325 46.56 C 131.325 38.942 125.117 32.757 117.472 32.757 L 117.472 32.757 Z " fill="rgb(0,151,167)"/>
  </g>
</svg>