<?xml version="1.0" encoding="UTF-8" standalone="no"?><!-- Generator: Gravit.io --><svg xmlns="http://www.w3.org/2000/svg" xmlns:xlink="http://www.w3.org/1999/xlink" style="isolation:isolate" viewBox="0 0 256 256" width="256pt" height="256pt"><defs><clipPath id="_clipPath_ppfvdtFkXStSvukVqjfHq1f5KbGjvULM"><rect width="256" height="256"/></clipPath></defs><g clip-path="url(#_clipPath_ppfvdtFkXStSvukVqjfHq1f5KbGjvULM)"><path d="M 53.42 15 L 202.58 15 C 223.785 15 241 32.215 241 53.42 L 241 202.58 C 241 223.785 223.785 241 202.58 241 L 53.42 241 C 32.215 241 15 223.785 15 202.58 L 15 53.42 C 15 32.215 32.215 15 53.42 15 Z" style="stroke:none;fill:#FFFFFF;stroke-miterlimit:10;"/><path d=" M 137.5 214.25 C 169.235 214.25 195 188.485 195 156.75 L 195 156.75 C 195 125.48 169.985 100.006 138.893 99.262 C 138.676 99.256 138.458 99.25 138.24 99.25 C 138.157 99.25 138.075 99.251 137.994 99.254 C 137.83 99.251 137.665 99.25 137.5 99.25 L 137.5 99.25 L 137.5 99.272 C 130.945 99.655 125.74 105.099 125.74 111.75 C 125.74 118.401 130.945 123.845 137.5 124.228 L 137.5 124.25 L 137.5 124.25 C 155.437 124.25 170 138.813 170 156.75 L 170 156.75 C 170 174.687 155.437 189.25 137.5 189.25 L 137.5 189.25 C 130.601 189.25 125 194.851 125 201.75 C 125 208.649 130.601 214.25 137.5 214.25 L 137.5 214.25 Z " fill="rgb(0,151,167)"/><path d=" M 178.261 94.98 C 180.575 92.666 181.009 89.244 179.203 87.556 L 168.444 76.797 C 166.756 74.991 163.334 75.425 161.02 77.739 L 150.108 88.604 L 167.35 105.846 M 78.185 160.574 L 75.68 180.32 L 95.426 177.815 L 161.06 112.136 L 143.819 94.894 L 78.185 160.574 Z " fill="rgb(97,97,97)"/><path d=" M 118.5 41.75 C 86.765 41.75 61 67.515 61 99.25 L 61 99.25 C 61 130.52 86.015 155.994 117.107 156.738 C 117.324 156.744 117.542 156.75 117.76 156.75 C 117.843 156.75 117.925 156.749 118.006 156.746 C 118.17 156.749 118.335 156.75 118.5 156.75 L 118.5 156.75 L 118.5 156.728 C 125.055 156.345 130.26 150.901 130.26 144.25 C 130.26 137.599 125.055 132.155 118.5 131.772 L 118.5 131.75 L 118.5 131.75 C 100.563 131.75 86 117.187 86 99.25 L 86 99.25 C 86 81.313 100.563 66.75 118.5 66.75 L 118.5 66.75 C 125.399 66.75 131 61.149 131 54.25 C 131 47.351 125.399 41.75 118.5 41.75 L 118.5 41.75 Z " fill="rgb(0,151,167)"/></g></svg>